<svg width="900" height="300" viewBox="0 0 900 300" xmlns="http://www.w3.org/2000/svg">
<defs>
<style>
@keyframes tw{0%,100%{opacity:.15}50%{opacity:1}}
@keyframes fl{0%,100%{transform:translateY(0)}50%{transform:translateY(-14px)}}
@keyframes flr{0%,100%{transform:translateY(0) rotate(0deg)}50%{transform:translateY(-10px) rotate(8deg)}}
@keyframes pulse{0%,100%{opacity:.12;r:3}50%{opacity:.5;r:4.5}}
@keyframes fadeup{0%{opacity:0;transform:translateY(18px)}100%{opacity:1;transform:translateY(0)}}
</style>
<radialGradient id="bg" cx="50%" cy="55%" r="55%">
<stop offset="0%" stop-color="#2d0040" stop-opacity="1"/>
<stop offset="100%" stop-color="#06000e" stop-opacity="1"/>
</radialGradient>
<radialGradient id="glow1" cx="50%" cy="50%" r="50%">
<stop offset="0%" stop-color="#8b1a4a" stop-opacity="0.35"/>
<stop offset="100%" stop-color="#06000e" stop-opacity="0"/>
</radialGradient>
</defs>

<rect width="900" height="300" fill="url(#bg)" rx="0"/>
<rect width="900" height="300" fill="url(#glow1)"/>
<circle cx="572.7" cy="17.0" r="0.9" fill="#fff" opacity="0.77" style="animation:tw 4.9s 1.1s infinite"/>
<circle cx="795.1" cy="34.3" r="1.1" fill="#fff" opacity="0.65" style="animation:tw 2.9s 0.1s infinite"/>
<circle cx="33.4" cy="65.7" r="1.5" fill="#fff" opacity="0.71" style="animation:tw 2.9s 2.7s infinite"/>
<circle cx="722.3" cy="11.8" r="1.7" fill="#fff" opacity="0.41" style="animation:tw 3.4s 3.5s infinite"/>
<circle cx="852.3" cy="104.2" r="0.6" fill="#fff" opacity="0.72" style="animation:tw 5.4s 0.5s infinite"/>
<circle cx="720.3" cy="214.3" r="1.3" fill="#fff" opacity="0.69" style="animation:tw 3.5s 4.9s infinite"/>
<circle cx="739.9" cy="183.2" r="1.8" fill="#fff" opacity="0.33" style="animation:tw 4.8s 2.9s infinite"/>
<circle cx="210.6" cy="91.0" r="0.6" fill="#fff" opacity="0.49" style="animation:tw 2.4s 1.2s infinite"/>
<circle cx="569.4" cy="112.2" r="1.1" fill="#fff" opacity="0.96" style="animation:tw 3.1s 1.0s infinite"/>
<circle cx="580.3" cy="180.6" r="0.8" fill="#fff" opacity="0.57" style="animation:tw 2.7s 3.6s infinite"/>
<circle cx="880.8" cy="189.2" r="1.3" fill="#fff" opacity="0.84" style="animation:tw 5.4s 3.4s infinite"/>
<circle cx="211.6" cy="19.0" r="1.0" fill="#fff" opacity="0.96" style="animation:tw 2.8s 1.3s infinite"/>
<circle cx="781.2" cy="98.1" r="1.5" fill="#fff" opacity="0.62" style="animation:tw 5.7s 2.0s infinite"/>
<circle cx="243.1" cy="79.1" r="1.3" fill="#fff" opacity="0.93" style="animation:tw 4.3s 1.3s infinite"/>
<circle cx="361.5" cy="71.4" r="2.0" fill="#fff" opacity="0.33" style="animation:tw 2.4s 2.5s infinite"/>
<circle cx="106.5" cy="185.7" r="1.7" fill="#fff" opacity="0.57" style="animation:tw 2.3s 2.1s infinite"/>
<circle cx="886.6" cy="158.2" r="2.0" fill="#fff" opacity="0.80" style="animation:tw 2.0s 4.3s infinite"/>
<circle cx="609.9" cy="160.4" r="0.9" fill="#fff" opacity="0.60" style="animation:tw 2.4s 3.2s infinite"/>
<circle cx="409.3" cy="277.1" r="1.8" fill="#fff" opacity="0.43" style="animation:tw 4.0s 1.3s infinite"/>
<circle cx="813.1" cy="253.7" r="0.9" fill="#fff" opacity="0.41" style="animation:tw 4.4s 3.2s infinite"/>
<circle cx="681.0" cy="161.0" r="1.7" fill="#fff" opacity="0.53" style="animation:tw 2.0s 2.7s infinite"/>
<circle cx="27.1" cy="270.1" r="1.8" fill="#fff" opacity="0.34" style="animation:tw 3.2s 4.2s infinite"/>
<circle cx="782.6" cy="275.1" r="0.6" fill="#fff" opacity="0.83" style="animation:tw 2.3s 2.4s infinite"/>
<circle cx="683.9" cy="45.9" r="1.2" fill="#fff" opacity="0.91" style="animation:tw 3.1s 2.7s infinite"/>
<circle cx="382.4" cy="69.3" r="1.3" fill="#fff" opacity="0.52" style="animation:tw 2.8s 3.6s infinite"/>
<circle cx="885.7" cy="192.0" r="1.2" fill="#fff" opacity="0.46" style="animation:tw 2.5s 2.6s infinite"/>
<circle cx="307.5" cy="174.7" r="0.8" fill="#fff" opacity="0.74" style="animation:tw 2.3s 1.1s infinite"/>
<circle cx="211.5" cy="263.5" r="1.8" fill="#fff" opacity="0.77" style="animation:tw 3.0s 0.4s infinite"/>
<circle cx="198.5" cy="47.0" r="1.9" fill="#fff" opacity="0.85" style="animation:tw 3.9s 2.9s infinite"/>
<circle cx="720.6" cy="63.3" r="0.6" fill="#fff" opacity="0.63" style="animation:tw 3.7s 2.2s infinite"/>
<circle cx="651.6" cy="198.5" r="2.0" fill="#fff" opacity="0.54" style="animation:tw 3.6s 0.5s infinite"/>
<circle cx="768.3" cy="79.6" r="0.8" fill="#fff" opacity="0.49" style="animation:tw 3.7s 2.2s infinite"/>
<circle cx="229.8" cy="268.5" r="1.2" fill="#fff" opacity="0.34" style="animation:tw 4.2s 4.3s infinite"/>
<circle cx="889.4" cy="244.1" r="2.0" fill="#fff" opacity="0.42" style="animation:tw 5.4s 4.6s infinite"/>
<circle cx="437.4" cy="69.8" r="1.1" fill="#fff" opacity="0.99" style="animation:tw 3.5s 0.3s infinite"/>
<circle cx="243.4" cy="229.5" r="1.2" fill="#fff" opacity="1.00" style="animation:tw 5.8s 2.1s infinite"/>
<circle cx="499.1" cy="211.2" r="0.7" fill="#fff" opacity="0.71" style="animation:tw 5.9s 1.5s infinite"/>
<circle cx="487.1" cy="219.4" r="0.6" fill="#fff" opacity="0.90" style="animation:tw 4.0s 2.9s infinite"/>
<circle cx="148.5" cy="279.0" r="0.6" fill="#fff" opacity="0.77" style="animation:tw 4.4s 0.9s infinite"/>
<circle cx="217.0" cy="43.6" r="1.8" fill="#fff" opacity="0.73" style="animation:tw 4.4s 1.2s infinite"/>
<circle cx="378.9" cy="173.4" r="1.3" fill="#fff" opacity="0.80" style="animation:tw 2.8s 4.7s infinite"/>
<circle cx="220.0" cy="120.8" r="1.5" fill="#fff" opacity="0.83" style="animation:tw 3.3s 1.5s infinite"/>
<circle cx="73.8" cy="138.3" r="2.0" fill="#fff" opacity="0.45" style="animation:tw 2.3s 5.0s infinite"/>
<circle cx="243.4" cy="271.3" r="1.8" fill="#fff" opacity="0.41" style="animation:tw 3.5s 4.4s infinite"/>
<circle cx="743.7" cy="207.0" r="1.4" fill="#fff" opacity="0.31" style="animation:tw 4.6s 4.9s infinite"/>
<circle cx="729.1" cy="93.8" r="1.5" fill="#fff" opacity="0.38" style="animation:tw 2.5s 4.7s infinite"/>
<circle cx="104.2" cy="164.9" r="0.9" fill="#fff" opacity="0.44" style="animation:tw 4.9s 3.0s infinite"/>
<circle cx="568.1" cy="83.9" r="1.2" fill="#fff" opacity="0.36" style="animation:tw 5.4s 4.5s infinite"/>
<circle cx="382.7" cy="87.5" r="0.5" fill="#fff" opacity="0.48" style="animation:tw 4.5s 3.9s infinite"/>
<circle cx="662.3" cy="164.5" r="1.1" fill="#fff" opacity="0.92" style="animation:tw 2.3s 0.0s infinite"/>
<circle cx="805.5" cy="162.8" r="1.8" fill="#fff" opacity="0.39" style="animation:tw 2.6s 2.9s infinite"/>
<circle cx="281.3" cy="261.7" r="1.7" fill="#fff" opacity="0.45" style="animation:tw 5.6s 4.3s infinite"/>
<circle cx="229.6" cy="38.8" r="1.7" fill="#fff" opacity="0.73" style="animation:tw 3.6s 4.4s infinite"/>
<circle cx="146.0" cy="270.4" r="1.8" fill="#fff" opacity="0.92" style="animation:tw 5.2s 4.9s infinite"/>
<circle cx="31.8" cy="216.2" r="1.0" fill="#fff" opacity="0.90" style="animation:tw 5.2s 4.7s infinite"/>
<circle cx="723.5" cy="84.7" r="1.7" fill="#fff" opacity="0.90" style="animation:tw 5.5s 0.5s infinite"/>
<circle cx="205.7" cy="238.6" r="1.2" fill="#fff" opacity="0.46" style="animation:tw 5.2s 1.5s infinite"/>
<circle cx="30.8" cy="64.1" r="1.0" fill="#fff" opacity="0.50" style="animation:tw 5.9s 4.3s infinite"/>
<circle cx="574.5" cy="121.9" r="2.0" fill="#fff" opacity="0.38" style="animation:tw 5.8s 2.7s infinite"/>
<circle cx="864.0" cy="60.0" r="1.9" fill="#fff" opacity="0.60" style="animation:tw 2.4s 1.3s infinite"/>
<circle cx="651.1" cy="97.8" r="1.4" fill="#fff" opacity="0.70" style="animation:tw 3.5s 2.6s infinite"/>
<circle cx="234.2" cy="208.5" r="0.5" fill="#fff" opacity="0.80" style="animation:tw 4.2s 4.6s infinite"/>
<circle cx="662.9" cy="197.8" r="1.0" fill="#fff" opacity="0.53" style="animation:tw 4.7s 0.3s infinite"/>
<circle cx="286.2" cy="247.4" r="1.6" fill="#fff" opacity="0.59" style="animation:tw 3.2s 1.5s infinite"/>
<circle cx="364.1" cy="92.8" r="0.7" fill="#fff" opacity="0.77" style="animation:tw 5.8s 2.1s infinite"/>
<circle cx="804.5" cy="182.3" r="1.0" fill="#fff" opacity="0.50" style="animation:tw 2.0s 2.7s infinite"/>
<circle cx="388.3" cy="172.4" r="1.5" fill="#fff" opacity="0.45" style="animation:tw 3.8s 2.3s infinite"/>
<circle cx="426.4" cy="262.3" r="1.7" fill="#fff" opacity="0.66" style="animation:tw 2.3s 0.8s infinite"/>
<circle cx="567.0" cy="103.9" r="1.7" fill="#fff" opacity="0.46" style="animation:tw 4.7s 3.8s infinite"/>
<circle cx="185.2" cy="16.8" r="0.9" fill="#fff" opacity="0.35" style="animation:tw 5.4s 2.4s infinite"/>
<circle cx="374.7" cy="186.3" r="0.8" fill="#fff" opacity="0.47" style="animation:tw 4.0s 3.5s infinite"/>
<circle cx="587.3" cy="11.6" r="1.6" fill="#fff" opacity="0.60" style="animation:tw 2.4s 3.9s infinite"/>
<circle cx="164.8" cy="278.2" r="1.3" fill="#fff" opacity="0.89" style="animation:tw 3.0s 0.3s infinite"/>
<circle cx="411.7" cy="234.4" r="1.5" fill="#fff" opacity="0.97" style="animation:tw 4.4s 4.9s infinite"/>
<circle cx="794.5" cy="181.5" r="1.6" fill="#fff" opacity="0.68" style="animation:tw 5.3s 2.5s infinite"/>
<circle cx="799.5" cy="218.2" r="1.2" fill="#fff" opacity="0.75" style="animation:tw 3.0s 1.3s infinite"/>
<circle cx="683.9" cy="156.0" r="1.4" fill="#fff" opacity="0.50" style="animation:tw 2.3s 1.4s infinite"/>
<circle cx="249.1" cy="99.5" r="1.3" fill="#fff" opacity="0.79" style="animation:tw 2.9s 0.7s infinite"/>
<circle cx="631.6" cy="28.0" r="1.1" fill="#fff" opacity="0.44" style="animation:tw 3.7s 2.7s infinite"/>
<circle cx="379.7" cy="263.4" r="1.4" fill="#fff" opacity="0.84" style="animation:tw 5.4s 3.5s infinite"/>
<circle cx="80" cy="60" r="18" fill="#c9607a" opacity="0.18" style="animation:fl 8s 0s infinite ease-in-out"/>
<circle cx="820" cy="80" r="12" fill="#e8829a" opacity="0.22" style="animation:fl 10s 1.5s infinite ease-in-out"/>
<circle cx="150" cy="220" r="8" fill="#f4a7c3" opacity="0.15" style="animation:fl 12s 0.8s infinite ease-in-out"/>
<circle cx="760" cy="200" r="22" fill="#a03560" opacity="0.2" style="animation:fl 9s 2.2s infinite ease-in-out"/>
<circle cx="400" cy="30" r="6" fill="#f4a7c3" opacity="0.12" style="animation:fl 11s 1.1s infinite ease-in-out"/>
<circle cx="650" cy="260" r="10" fill="#d4607a" opacity="0.17" style="animation:fl 8s 3.0s infinite ease-in-out"/>
<circle cx="50" cy="170" r="14" fill="#b04468" opacity="0.14" style="animation:fl 13s 1.8s infinite ease-in-out"/>
<circle cx="860" cy="240" r="7" fill="#f4a7c3" opacity="0.13" style="animation:fl 10s 0.4s infinite ease-in-out"/>

<text x="450" y="138" font-family="Georgia,serif" font-size="54" font-style="italic" font-weight="400"
  fill="#f4a7c3" text-anchor="middle" letter-spacing="3"
  style="animation:fadeup 1.2s 0.3s both">Ayush Roy</text>

<text x="450" y="176" font-family="Georgia,serif" font-size="14" font-style="italic"
  fill="#9b6a82" text-anchor="middle" letter-spacing="8"
  style="animation:fadeup 1.2s 0.7s both">SYSTEM BUILDER  ·  DEVELOPER  ·  CREATOR</text>

<line x1="330" y1="196" x2="570" y2="196" stroke="#5a1a3a" stroke-width="0.5" opacity="0.7"
  style="animation:fadeup 1.2s 1s both"/>

<text x="450" y="218" font-family="Georgia,serif" font-size="12" font-style="italic"
  fill="#6a3a52" text-anchor="middle" letter-spacing="3"
  style="animation:fadeup 1.2s 1.2s both">yorayriniwnl.vercel.app</text>
</svg>
