<svg width="900" height="60" viewBox="0 0 900 60" xmlns="http://www.w3.org/2000/svg">
<defs><style>.s{animation:tw 3s infinite ease-in-out}.s2{animation:tw 5s 1.5s infinite ease-in-out}@keyframes tw{0%,100%{opacity:.08}50%{opacity:.7}}</style></defs>
<rect width="900" height="60" fill="#06000e"/>
<circle cx="716.2" cy="20.6" r="0.6" fill="#f4a7c3" opacity="0.51" class="s"/>
<circle cx="107.4" cy="28.7" r="1.0" fill="#ffffff" opacity="0.41" class="s2"/>
<circle cx="134.5" cy="37.1" r="0.9" fill="#ffffff" opacity="0.53" class="s"/>
<circle cx="30.2" cy="54.7" r="0.5" fill="#f4a7c3" opacity="0.51" class="s2"/>
<circle cx="456.5" cy="48.1" r="0.5" fill="#ffffff" opacity="0.26" class="s"/>
<circle cx="82.6" cy="45.1" r="0.9" fill="#ffffff" opacity="0.20" class="s2"/>
<circle cx="175.6" cy="7.4" r="0.5" fill="#f4a7c3" opacity="0.38" class="s"/>
<circle cx="394.5" cy="41.0" r="0.4" fill="#ffffff" opacity="0.52" class="s2"/>
<circle cx="879.1" cy="42.9" r="1.2" fill="#ffffff" opacity="0.52" class="s"/>
<circle cx="89.5" cy="27.9" r="0.4" fill="#f4a7c3" opacity="0.49" class="s2"/>
<circle cx="483.8" cy="8.7" r="0.8" fill="#ffffff" opacity="0.49" class="s"/>
<circle cx="496.3" cy="9.6" r="1.4" fill="#ffffff" opacity="0.13" class="s2"/>
<circle cx="755.4" cy="55.6" r="1.2" fill="#f4a7c3" opacity="0.57" class="s"/>
<circle cx="477.6" cy="14.8" r="0.9" fill="#ffffff" opacity="0.47" class="s2"/>
<circle cx="689.0" cy="23.8" r="1.4" fill="#ffffff" opacity="0.12" class="s"/>
<circle cx="446.3" cy="5.1" r="0.7" fill="#f4a7c3" opacity="0.59" class="s2"/>
<circle cx="109.9" cy="56.2" r="1.4" fill="#ffffff" opacity="0.44" class="s"/>
<circle cx="54.8" cy="28.5" r="1.1" fill="#ffffff" opacity="0.15" class="s2"/>
<circle cx="270.4" cy="8.0" r="1.3" fill="#f4a7c3" opacity="0.56" class="s"/>
<circle cx="827.1" cy="43.5" r="1.0" fill="#ffffff" opacity="0.13" class="s2"/>
<circle cx="433.5" cy="44.1" r="1.2" fill="#ffffff" opacity="0.11" class="s"/>
<circle cx="12.3" cy="7.8" r="1.4" fill="#f4a7c3" opacity="0.16" class="s2"/>
<circle cx="352.3" cy="28.7" r="1.4" fill="#ffffff" opacity="0.17" class="s"/>
<circle cx="237.8" cy="44.7" r="0.4" fill="#ffffff" opacity="0.18" class="s2"/>
<circle cx="27.3" cy="54.7" r="0.6" fill="#f4a7c3" opacity="0.35" class="s"/>
<circle cx="342.5" cy="56.0" r="1.2" fill="#ffffff" opacity="0.40" class="s2"/>
<circle cx="440.7" cy="17.5" r="1.3" fill="#ffffff" opacity="0.15" class="s"/>
<circle cx="558.4" cy="18.9" r="0.6" fill="#f4a7c3" opacity="0.33" class="s2"/>
<circle cx="173.3" cy="35.0" r="0.4" fill="#ffffff" opacity="0.11" class="s"/>
<circle cx="130.8" cy="7.9" r="1.4" fill="#ffffff" opacity="0.36" class="s2"/>
<circle cx="609.1" cy="45.1" r="0.5" fill="#f4a7c3" opacity="0.58" class="s"/>
<circle cx="347.0" cy="27.9" r="0.9" fill="#ffffff" opacity="0.45" class="s2"/>
<circle cx="688.9" cy="13.5" r="1.3" fill="#ffffff" opacity="0.31" class="s"/>
<circle cx="228.4" cy="49.7" r="1.3" fill="#f4a7c3" opacity="0.53" class="s2"/>
<circle cx="292.9" cy="52.3" r="1.2" fill="#ffffff" opacity="0.59" class="s"/>
<circle cx="676.8" cy="57.0" r="0.9" fill="#ffffff" opacity="0.47" class="s2"/>
<circle cx="700.3" cy="31.3" r="0.9" fill="#f4a7c3" opacity="0.30" class="s"/>
<circle cx="778.0" cy="23.4" r="1.2" fill="#ffffff" opacity="0.38" class="s2"/>
<circle cx="634.2" cy="19.7" r="0.4" fill="#ffffff" opacity="0.44" class="s"/>
<circle cx="134.1" cy="22.4" r="1.2" fill="#f4a7c3" opacity="0.12" class="s2"/>
<circle cx="815.8" cy="34.8" r="1.0" fill="#ffffff" opacity="0.44" class="s"/>
<circle cx="55.7" cy="4.2" r="1.2" fill="#ffffff" opacity="0.39" class="s2"/>
<circle cx="574.1" cy="47.5" r="0.6" fill="#f4a7c3" opacity="0.18" class="s"/>
<circle cx="867.3" cy="6.3" r="0.9" fill="#ffffff" opacity="0.41" class="s2"/>
<circle cx="855.0" cy="7.7" r="1.1" fill="#ffffff" opacity="0.14" class="s"/>
<circle cx="408.9" cy="36.5" r="1.3" fill="#f4a7c3" opacity="0.12" class="s2"/>
<circle cx="671.2" cy="11.0" r="0.8" fill="#ffffff" opacity="0.59" class="s"/>
<circle cx="761.9" cy="7.1" r="0.3" fill="#ffffff" opacity="0.12" class="s2"/>
<circle cx="700.0" cy="5.1" r="1.2" fill="#f4a7c3" opacity="0.50" class="s"/>
<circle cx="732.7" cy="53.6" r="1.1" fill="#ffffff" opacity="0.51" class="s2"/>
<line x1="60" y1="30" x2="390" y2="30" stroke="#1e0030" stroke-width="0.5" opacity="0.8"/>
<text x="450" y="35" font-family="Georgia,serif" font-size="12" fill="#5a2a42" text-anchor="middle" letter-spacing="6">✦</text>
<line x1="510" y1="30" x2="840" y2="30" stroke="#1e0030" stroke-width="0.5" opacity="0.8"/>
</svg>
