<svg width="900" height="140" viewBox="0 0 900 140" xmlns="http://www.w3.org/2000/svg">
<defs><style>.s{animation:tw 4s infinite ease-in-out}.s2{animation:tw 6s 2s infinite ease-in-out}@keyframes tw{0%,100%{opacity:.07}50%{opacity:.8}}</style></defs>
<rect width="900" height="140" fill="#06000e"/>
<path d="M0,50 C180,100 360,15 540,60 C720,105 810,25 900,55 L900,140 L0,140 Z" fill="#0d0018" opacity="0.9"/>
<path d="M0,70 C220,20 440,100 660,45 C780,15 870,75 900,50 L900,140 L0,140 Z" fill="#100020" opacity="0.5"/>
<circle cx="364.5" cy="28.4" r="0.6" fill="#f4a7c3" opacity="0.24" class="s"/>
<circle cx="681.3" cy="34.9" r="0.9" fill="#ffffff" opacity="0.48" class="s2"/>
<circle cx="484.4" cy="122.2" r="1.0" fill="#ffffff" opacity="0.33" class="s"/>
<circle cx="550.8" cy="30.5" r="1.7" fill="#ffffff" opacity="0.31" class="s2"/>
<circle cx="350.4" cy="89.7" r="0.5" fill="#f4a7c3" opacity="0.46" class="s"/>
<circle cx="761.5" cy="46.0" r="1.7" fill="#ffffff" opacity="0.39" class="s2"/>
<circle cx="694.3" cy="62.6" r="0.9" fill="#ffffff" opacity="0.25" class="s"/>
<circle cx="11.8" cy="28.9" r="1.8" fill="#ffffff" opacity="0.39" class="s2"/>
<circle cx="416.3" cy="117.3" r="1.2" fill="#f4a7c3" opacity="0.64" class="s"/>
<circle cx="323.2" cy="30.4" r="1.7" fill="#ffffff" opacity="0.19" class="s2"/>
<circle cx="709.7" cy="78.6" r="1.8" fill="#ffffff" opacity="0.62" class="s"/>
<circle cx="592.7" cy="7.7" r="0.3" fill="#ffffff" opacity="0.36" class="s2"/>
<circle cx="734.5" cy="13.3" r="0.9" fill="#f4a7c3" opacity="0.15" class="s"/>
<circle cx="280.7" cy="3.7" r="0.8" fill="#ffffff" opacity="0.39" class="s2"/>
<circle cx="183.7" cy="103.0" r="0.4" fill="#ffffff" opacity="0.22" class="s"/>
<circle cx="234.2" cy="54.3" r="1.4" fill="#ffffff" opacity="0.29" class="s2"/>
<circle cx="623.5" cy="120.1" r="0.5" fill="#f4a7c3" opacity="0.58" class="s"/>
<circle cx="538.7" cy="97.9" r="1.2" fill="#ffffff" opacity="0.32" class="s2"/>
<circle cx="90.9" cy="21.2" r="0.6" fill="#ffffff" opacity="0.20" class="s"/>
<circle cx="134.5" cy="29.4" r="1.1" fill="#ffffff" opacity="0.52" class="s2"/>
<circle cx="715.2" cy="110.5" r="0.5" fill="#f4a7c3" opacity="0.55" class="s"/>
<circle cx="170.5" cy="12.2" r="0.7" fill="#ffffff" opacity="0.42" class="s2"/>
<circle cx="47.4" cy="30.5" r="0.9" fill="#ffffff" opacity="0.55" class="s"/>
<circle cx="360.5" cy="55.6" r="0.9" fill="#ffffff" opacity="0.15" class="s2"/>
<circle cx="787.8" cy="120.2" r="1.4" fill="#f4a7c3" opacity="0.32" class="s"/>
<circle cx="400.1" cy="42.6" r="1.3" fill="#ffffff" opacity="0.46" class="s2"/>
<circle cx="281.5" cy="114.0" r="1.4" fill="#ffffff" opacity="0.22" class="s"/>
<circle cx="725.3" cy="88.6" r="0.7" fill="#ffffff" opacity="0.26" class="s2"/>
<circle cx="673.8" cy="13.2" r="1.0" fill="#f4a7c3" opacity="0.63" class="s"/>
<circle cx="233.0" cy="66.9" r="1.7" fill="#ffffff" opacity="0.58" class="s2"/>
<circle cx="706.5" cy="70.7" r="1.7" fill="#ffffff" opacity="0.24" class="s"/>
<circle cx="789.6" cy="55.0" r="1.3" fill="#ffffff" opacity="0.44" class="s2"/>
<circle cx="256.2" cy="89.1" r="1.2" fill="#f4a7c3" opacity="0.64" class="s"/>
<circle cx="598.4" cy="58.9" r="0.9" fill="#ffffff" opacity="0.59" class="s2"/>
<circle cx="312.4" cy="87.7" r="1.3" fill="#ffffff" opacity="0.63" class="s"/>
<circle cx="177.0" cy="87.5" r="0.6" fill="#ffffff" opacity="0.45" class="s2"/>
<circle cx="589.9" cy="97.4" r="1.6" fill="#f4a7c3" opacity="0.23" class="s"/>
<circle cx="770.8" cy="46.9" r="0.9" fill="#ffffff" opacity="0.16" class="s2"/>
<circle cx="478.3" cy="3.2" r="0.8" fill="#ffffff" opacity="0.47" class="s"/>
<circle cx="670.3" cy="24.3" r="1.5" fill="#ffffff" opacity="0.34" class="s2"/>
<circle cx="187.7" cy="98.1" r="1.4" fill="#f4a7c3" opacity="0.36" class="s"/>
<circle cx="477.6" cy="81.7" r="1.2" fill="#ffffff" opacity="0.52" class="s2"/>
<circle cx="689.4" cy="28.4" r="0.3" fill="#ffffff" opacity="0.16" class="s"/>
<circle cx="278.7" cy="76.7" r="1.7" fill="#ffffff" opacity="0.33" class="s2"/>
<circle cx="333.6" cy="73.8" r="1.7" fill="#f4a7c3" opacity="0.42" class="s"/>
<circle cx="267.7" cy="99.1" r="1.8" fill="#ffffff" opacity="0.54" class="s2"/>
<circle cx="359.6" cy="24.9" r="1.0" fill="#ffffff" opacity="0.17" class="s"/>
<circle cx="121.3" cy="59.7" r="1.6" fill="#ffffff" opacity="0.49" class="s2"/>
<circle cx="377.2" cy="124.2" r="0.6" fill="#f4a7c3" opacity="0.24" class="s"/>
<circle cx="248.5" cy="75.7" r="1.6" fill="#ffffff" opacity="0.31" class="s2"/>
<circle cx="740.7" cy="122.0" r="1.0" fill="#ffffff" opacity="0.59" class="s"/>
<circle cx="796.4" cy="63.5" r="0.6" fill="#ffffff" opacity="0.14" class="s2"/>
<circle cx="218.2" cy="61.4" r="0.3" fill="#f4a7c3" opacity="0.28" class="s"/>
<circle cx="444.8" cy="45.6" r="1.4" fill="#ffffff" opacity="0.41" class="s2"/>
<circle cx="479.4" cy="83.5" r="1.2" fill="#ffffff" opacity="0.33" class="s"/>
</svg>
