<svg width="900" height="120" viewBox="0 0 900 120" xmlns="http://www.w3.org/2000/svg">
<defs>
<style>@keyframes tw{0%,100%{opacity:.1}50%{opacity:.9}}@keyframes fl{0%,100%{transform:translateY(0)}50%{transform:translateY(-8px)}}</style>
<linearGradient id="wv" x1="0" y1="0" x2="0" y2="1">
<stop offset="0%" stop-color="#06000e"/>
<stop offset="100%" stop-color="#0a0010"/>
</linearGradient>
</defs>
<rect width="900" height="120" fill="url(#wv)"/>
<path d="M0,40 C150,80 300,10 450,50 C600,90 750,20 900,55 L900,120 L0,120 Z" fill="#0d0018" opacity="0.8"/>
<path d="M0,60 C200,20 400,90 600,40 C750,10 850,70 900,45 L900,120 L0,120 Z" fill="#100020" opacity="0.6"/>
<circle cx="365.5" cy="27.0" r="0.7" fill="#f4a7c3" opacity="0.38" style="animation:tw 5.0s 1.2s infinite"/>
<circle cx="347.1" cy="80.3" r="1.2" fill="#f4a7c3" opacity="0.50" style="animation:tw 4.0s 4.7s infinite"/>
<circle cx="549.6" cy="28.8" r="1.7" fill="#f4a7c3" opacity="0.68" style="animation:tw 3.6s 1.9s infinite"/>
<circle cx="144.0" cy="77.7" r="1.6" fill="#f4a7c3" opacity="0.57" style="animation:tw 5.8s 1.7s infinite"/>
<circle cx="691.5" cy="56.6" r="1.0" fill="#f4a7c3" opacity="0.34" style="animation:tw 2.0s 1.3s infinite"/>
<circle cx="880.8" cy="63.8" r="1.0" fill="#f4a7c3" opacity="0.88" style="animation:tw 4.4s 4.5s infinite"/>
<circle cx="324.6" cy="28.7" r="1.7" fill="#f4a7c3" opacity="0.62" style="animation:tw 5.2s 0.8s infinite"/>
<circle cx="874.9" cy="108.8" r="1.3" fill="#f4a7c3" opacity="0.53" style="animation:tw 2.1s 0.2s infinite"/>
<circle cx="731.3" cy="13.9" r="1.0" fill="#f4a7c3" opacity="0.20" style="animation:tw 3.2s 0.4s infinite"/>
<circle cx="300.1" cy="62.6" r="0.7" fill="#f4a7c3" opacity="0.35" style="animation:tw 2.2s 3.9s infinite"/>
<circle cx="236.7" cy="49.4" r="1.5" fill="#f4a7c3" opacity="0.85" style="animation:tw 4.8s 1.8s infinite"/>
<circle cx="125.2" cy="100.0" r="1.2" fill="#f4a7c3" opacity="0.49" style="animation:tw 4.4s 3.7s infinite"/>
<circle cx="94.9" cy="20.8" r="0.6" fill="#f4a7c3" opacity="0.35" style="animation:tw 2.6s 0.9s infinite"/>
<circle cx="503.6" cy="89.8" r="1.5" fill="#f4a7c3" opacity="0.78" style="animation:tw 2.5s 4.2s infinite"/>
<circle cx="173.6" cy="13.0" r="0.8" fill="#f4a7c3" opacity="0.35" style="animation:tw 2.2s 2.9s infinite"/>
<circle cx="361.2" cy="95.5" r="1.0" fill="#f4a7c3" opacity="0.26" style="animation:tw 3.5s 2.1s infinite"/>
<circle cx="784.0" cy="106.5" r="1.4" fill="#f4a7c3" opacity="0.42" style="animation:tw 3.8s 2.0s infinite"/>
<circle cx="585.8" cy="76.9" r="0.8" fill="#f4a7c3" opacity="0.35" style="animation:tw 4.9s 4.4s infinite"/>
<circle cx="722.2" cy="79.2" r="0.7" fill="#f4a7c3" opacity="0.26" style="animation:tw 5.0s 1.5s infinite"/>
<circle cx="395.3" cy="111.0" r="0.8" fill="#f4a7c3" opacity="0.81" style="animation:tw 5.6s 2.5s infinite"/>
<circle cx="703.6" cy="63.7" r="1.7" fill="#f4a7c3" opacity="0.49" style="animation:tw 5.5s 1.3s infinite"/>
<circle cx="589.2" cy="72.2" r="0.8" fill="#f4a7c3" opacity="0.89" style="animation:tw 4.4s 3.4s infinite"/>
<circle cx="596.8" cy="53.4" r="0.9" fill="#f4a7c3" opacity="0.67" style="animation:tw 3.4s 4.4s infinite"/>
<circle cx="621.0" cy="111.1" r="0.7" fill="#f4a7c3" opacity="0.65" style="animation:tw 2.7s 3.3s infinite"/>
<circle cx="588.3" cy="86.7" r="1.6" fill="#f4a7c3" opacity="0.44" style="animation:tw 5.4s 1.2s infinite"/>
<circle cx="361.9" cy="17.4" r="1.1" fill="#f4a7c3" opacity="0.67" style="animation:tw 3.2s 0.0s infinite"/>
<circle cx="667.8" cy="23.4" r="1.5" fill="#f4a7c3" opacity="0.72" style="animation:tw 2.8s 2.2s infinite"/>
<circle cx="660.3" cy="56.5" r="1.1" fill="#f4a7c3" opacity="0.74" style="animation:tw 4.5s 3.1s infinite"/>
<circle cx="686.7" cy="27.0" r="0.4" fill="#f4a7c3" opacity="0.61" style="animation:tw 3.2s 0.5s infinite"/>
<circle cx="855.8" cy="50.8" r="0.9" fill="#f4a7c3" opacity="0.61" style="animation:tw 5.8s 2.8s infinite"/>
<circle cx="269.8" cy="88.2" r="1.8" fill="#f4a7c3" opacity="0.32" style="animation:tw 3.6s 4.0s infinite"/>
<circle cx="415.5" cy="19.1" r="0.6" fill="#f4a7c3" opacity="0.69" style="animation:tw 5.4s 2.2s infinite"/>
<circle cx="378.0" cy="110.0" r="0.7" fill="#f4a7c3" opacity="0.60" style="animation:tw 3.1s 1.3s infinite"/>
<circle cx="793.0" cy="47.1" r="1.6" fill="#f4a7c3" opacity="0.83" style="animation:tw 3.9s 4.7s infinite"/>
<circle cx="792.6" cy="57.4" r="0.6" fill="#f4a7c3" opacity="0.52" style="animation:tw 3.0s 0.4s infinite"/>
<circle cx="23.6" cy="41.3" r="1.1" fill="#f4a7c3" opacity="0.60" style="animation:tw 4.9s 1.7s infinite"/>
<circle cx="479.1" cy="74.7" r="1.2" fill="#f4a7c3" opacity="0.61" style="animation:tw 2.7s 2.1s infinite"/>
<circle cx="51.8" cy="9.0" r="0.9" fill="#f4a7c3" opacity="0.31" style="animation:tw 5.0s 1.1s infinite"/>
<circle cx="396.4" cy="81.5" r="1.0" fill="#f4a7c3" opacity="0.32" style="animation:tw 2.5s 4.0s infinite"/>
<circle cx="252.4" cy="45.2" r="1.2" fill="#f4a7c3" opacity="0.69" style="animation:tw 4.2s 1.0s infinite"/>
</svg>
