<svg width="1500" height="40" viewBox="0 0 1500 40" xmlns="http://www.w3.org/2000/svg">
<defs>
<linearGradient id="waveBg" x1="0%" y1="0%" x2="100%" y2="0%"><stop offset="0%" stop-color="#000000"/><stop offset="60%" stop-color="#671515"/><stop offset="100%" stop-color="#160303"/></linearGradient>
<linearGradient id="waveEdge" x1="0%" y1="0%" x2="100%" y2="0%">
<stop offset="0%" stop-color="#e84b4b" stop-opacity="0"/>
<stop offset="50%" stop-color="#e84b4b" stop-opacity="0.55"/>
<stop offset="100%" stop-color="#e84b4b" stop-opacity="0"/>
</linearGradient>
<filter id="waveGrain" x="-5%" y="-5%" width="110%" height="110%"><feTurbulence type="fractalNoise" baseFrequency="0.85" numOctaves="2" seed="43" stitchTiles="stitch" result="n"/><feColorMatrix in="n" type="matrix" values="0 0 0 0 1  0 0 0 0 1  0 0 0 0 1  0.5 0.5 0.5 0 0"/></filter>
</defs>
<path d="M-250.0,23.2 C-375.0,35.2 -125.0,35.2 0.0,23.2 C125.0,11.2 375.0,11.2 500.0,23.2 C625.0,35.2 875.0,35.2 1000.0,23.2 C1125.0,11.2 1375.0,11.2 1500.0,23.2 C1625.0,35.2 1875.0,35.2 2000.0,23.2 L2000.0,40 L-500.0,40 Z" fill="url(#waveBg)" opacity="0.6"/>
<path d="M-187.5,30.2 C-281.2,22.2 -93.8,22.2 0.0,30.2 C93.8,38.2 281.2,38.2 375.0,30.2 C468.8,22.2 656.2,22.2 750.0,30.2 C843.8,38.2 1031.2,38.2 1125.0,30.2 C1218.8,22.2 1406.2,22.2 1500.0,30.2 C1593.8,38.2 1781.2,38.2 1875.0,30.2 L1875.0,40 L-375.0,40 Z" fill="url(#waveBg)"/>
<path d="M-187.5,30.2 C-281.2,22.2 -93.8,22.2 0.0,30.2 C93.8,38.2 281.2,38.2 375.0,30.2 C468.8,22.2 656.2,22.2 750.0,30.2 C843.8,38.2 1031.2,38.2 1125.0,30.2 C1218.8,22.2 1406.2,22.2 1500.0,30.2 C1593.8,38.2 1781.2,38.2 1875.0,30.2" fill="none" stroke="url(#waveEdge)" stroke-width="1"/>
<circle cx="67.1" cy="26.3" r="0.62" fill="#e84b4b"><animate attributeName="opacity" values="0.10;0.51;0.10" dur="4.21s" begin="-3.34s" repeatCount="indefinite"/></circle><circle cx="680.7" cy="19.9" r="0.52" fill="#e84b4b"><animate attributeName="opacity" values="0.10;0.49;0.10" dur="3.49s" begin="-2.98s" repeatCount="indefinite"/></circle><circle cx="819.5" cy="28.2" r="0.85" fill="#e84b4b"><animate attributeName="opacity" values="0.08;0.38;0.08" dur="4.64s" begin="-3.81s" repeatCount="indefinite"/></circle><circle cx="566.3" cy="7.1" r="0.91" fill="#e84b4b"><animate attributeName="opacity" values="0.10;0.52;0.10" dur="4.45s" begin="-2.66s" repeatCount="indefinite"/></circle><circle cx="759.9" cy="22.4" r="0.80" fill="#e84b4b"><animate attributeName="opacity" values="0.06;0.32;0.06" dur="2.75s" begin="-2.59s" repeatCount="indefinite"/></circle><circle cx="1251.9" cy="13.5" r="1.21" fill="#e84b4b"><animate attributeName="opacity" values="0.11;0.54;0.11" dur="2.85s" begin="-2.44s" repeatCount="indefinite"/></circle><circle cx="874.9" cy="33.8" r="1.04" fill="#e84b4b"><animate attributeName="opacity" values="0.07;0.34;0.07" dur="4.09s" begin="-3.22s" repeatCount="indefinite"/></circle><circle cx="1340.4" cy="14.6" r="0.92" fill="#e84b4b"><animate attributeName="opacity" values="0.12;0.62;0.12" dur="3.00s" begin="-2.55s" repeatCount="indefinite"/></circle><circle cx="1165.7" cy="5.6" r="0.97" fill="#e84b4b"><animate attributeName="opacity" values="0.09;0.47;0.09" dur="3.05s" begin="-1.84s" repeatCount="indefinite"/></circle><circle cx="1444.4" cy="21.7" r="0.59" fill="#e84b4b"><animate attributeName="opacity" values="0.10;0.52;0.10" dur="4.47s" begin="-4.27s" repeatCount="indefinite"/></circle><circle cx="1068.5" cy="5.3" r="1.27" fill="#e84b4b"><animate attributeName="opacity" values="0.11;0.57;0.11" dur="2.80s" begin="-0.36s" repeatCount="indefinite"/></circle><circle cx="137.6" cy="25.3" r="0.62" fill="#e84b4b"><animate attributeName="opacity" values="0.13;0.66;0.13" dur="2.86s" begin="-1.53s" repeatCount="indefinite"/></circle>
<rect width="1500" height="40" filter="url(#waveGrain)" opacity="0.05"/>
</svg>